<?xml version="1.0" standalone="no"?>
<!DOCTYPE svg PUBLIC "-//W3C//DTD SVG 20010904//EN"
 "http://www.w3.org/TR/2001/REC-SVG-20010904/DTD/svg10.dtd">
<svg version="1.0" xmlns="http://www.w3.org/2000/svg"
 width="512.000000pt" height="512.000000pt" viewBox="0 0 512.000000 512.000000"
 preserveAspectRatio="xMidYMid meet">
<metadata>
Created by potrace 1.14, written by Peter Selinger 2001-2017
</metadata>
<g transform="translate(0.000000,512.000000) scale(0.100000,-0.100000)"
fill="#000000" stroke="none">
<path d="M186 4894 c-34 -11 -64 -31 -101 -67 -93 -94 -85 88 -85 -1919 0
-1619 2 -1772 16 -1801 20 -39 58 -75 93 -89 18 -8 384 -12 1206 -13 1271 -2
1238 -3 1251 49 6 25 8 26 94 26 85 0 88 -1 94 -25 12 -48 19 -49 528 -50
l477 0 383 -383 c211 -210 392 -389 404 -397 34 -23 107 -25 151 -5 57 27 397
374 413 423 13 41 9 90 -10 128 -7 13 -94 106 -193 206 l-181 182 -1 390 c0
366 -1 390 -19 410 -10 11 -27 23 -37 26 -17 6 -19 17 -19 96 0 53 4 88 9 84
5 -3 22 6 38 19 l28 24 0 1239 c-1 975 -3 1246 -13 1275 -21 58 -75 121 -133
153 l-54 30 -390 3 c-384 3 -391 2 -413 -18 -12 -11 -22 -27 -22 -35 0 -16 -1
-16 -95 -19 -66 -1 -95 7 -95 29 0 8 -10 21 -22 29 -20 14 -191 16 -1638 15
-1406 0 -1621 -2 -1664 -15z"/>
</g>
</svg>
